# xmcd
#
# Track frame offsets: 
#        150
#        28848
#        47093
#        75181
#        97789
#        122449
#        145901
#        167578
#
# Disc length: 2482 seconds
#
# Revision: 1
# Processed by: cddbd v1.5.2PL0 Copyright (c) Steve Scherf et al.
# Submitted via: ExactAudioCopy v1.0b3
#
DISCID=5409b008
DTITLE=Billy Flynn - Blues Drive - [CD2]
DYEAR=2009
DGENRE=Blues
TTITLE0=Tearin It Up
TTITLE1=Down-Load
TTITLE2=Sitar Blues
TTITLE3=Talk About It
TTITLE4=New Beginnings
TTITLE5=Pickin 6- A Go-Go
TTITLE6=Lady J
TTITLE7=Whole Lotta Love
EXTD=
EXTT0=
EXTT1=
EXTT2=
EXTT3=
EXTT4=
EXTT5=
EXTT6=
EXTT7=
PLAYORDER=
